<svg enable-background="new 0 0 24 24" viewBox="0 0 24 24" xmlns="http://www.w3.org/2000/svg"><path d="m12 2v7.1c1.2.4 2 1.5 2 2.8 0 .5-.1 1-.4 1.4l2 1.6c.1 0 .2-.1.4-.1.6 0 1 .4 1 1s-.4 1-1 1-1-.4-1-1v-.1l-2-1.6c-.5.5-1.2.8-2 .8-1.7 0-3-1.3-3-3 0-1.3.8-2.4 2-2.8v-7h-.1c-3.5.4-6.4 3.3-6.8 6.9-.3 2.2.3 4.2 1.5 5.8.9 1.2 1.4 2.5 1.4 4v3.2h9v-3h2c1.1 0 2-.9 2-2v-3l1.5-.6c.4-.2.6-.8.4-1.2l-1.9-3c-.4-3.7-3.3-6.7-7-7.2zm-1 8.5c-.8 0-1.5.7-1.5 1.5s.7 1.5 1.5 1.5 1.5-.7 1.5-1.5-.7-1.5-1.5-1.5z"/><path d="m0 0h24v24h-24z" fill="none"/></svg>